HIERARCHY
ROOT joint_Root
{
	OFFSET 0.0 0.0 0.0
	CHANNELS 6 Xposition Yposition Zposition Zrotation Xrotation Yrotation 
	JOINT Hips
	{
		OFFSET 4.5925 91.4895 -427.239
		CHANNELS 6 Xposition Yposition Zposition Zrotation Xrotation Yrotation 
		JOINT Spine
		{
			OFFSET 15.7357 0.0 0.0
			CHANNELS 6 Xposition Yposition Zposition Zrotation Xrotation Yrotation 
			JOINT Chest
			{
				OFFSET 8.98455 -0.406207 0.0
				CHANNELS 6 Xposition Yposition Zposition Zrotation Xrotation Yrotation 
				JOINT Neck
				{
					OFFSET 16.3773 0.0 0.0
					CHANNELS 6 Xposition Yposition Zposition Zrotation Xrotation Yrotation 
					JOINT Head
					{
						OFFSET 6.45672 0.0 0.0
						CHANNELS 6 Xposition Yposition Zposition Zrotation Xrotation Yrotation 
						End Site
						{
							OFFSET 0.0 0.0 0.0
						}
					}
				}
				JOINT Shoulder_L
				{
					OFFSET 12.9942 -0.242716 4.98039
					CHANNELS 6 Xposition Yposition Zposition Zrotation Xrotation Yrotation 
					JOINT UpperArm_L
					{
						OFFSET 5.34809 0.0 0.0
						CHANNELS 6 Xposition Yposition Zposition Zrotation Xrotation Yrotation 
						JOINT LowerArm_L
						{
							OFFSET 24.3286 1.87007e-05 0.0
							CHANNELS 6 Xposition Yposition Zposition Zrotation Xrotation Yrotation 
							JOINT Hand_L
							{
								OFFSET 22.2916 0.0 0.0
								CHANNELS 6 Xposition Yposition Zposition Zrotation Xrotation Yrotation 
								End Site
								{
									OFFSET 0.0 0.0 0.0
								}
							}
						}
					}
				}
				JOINT Shoulder_R
				{
					OFFSET 12.9945 -0.242716 -4.98039
					CHANNELS 6 Xposition Yposition Zposition Zrotation Xrotation Yrotation 
					JOINT UpperArm_R
					{
						OFFSET -5.34813 0.0 0.0
						CHANNELS 6 Xposition Yposition Zposition Zrotation Xrotation Yrotation 
						JOINT LowerArm_R
						{
							OFFSET -24.3289 0.000322201 0.0
							CHANNELS 6 Xposition Yposition Zposition Zrotation Xrotation Yrotation 
							JOINT Hand_R
							{
								OFFSET -22.2915 -0.000108084 0.0
								CHANNELS 6 Xposition Yposition Zposition Zrotation Xrotation Yrotation 
								End Site
								{
									OFFSET 0.0 0.0 0.0
								}
							}
						}
					}
				}
			}
		}
		JOINT UpperLeg_L
		{
			OFFSET -2.19248 -6.46944 0.0
			CHANNELS 6 Xposition Yposition Zposition Zrotation Xrotation Yrotation 
			JOINT LowerLeg_L
			{
				OFFSET 39.0811 0.0 -1.23785e-05
				CHANNELS 6 Xposition Yposition Zposition Zrotation Xrotation Yrotation 
				JOINT Foot_L
				{
					OFFSET 40.9854 0.0 -1.26872e-05
					CHANNELS 6 Xposition Yposition Zposition Zrotation Xrotation Yrotation 
					JOINT Toes_L
					{
						OFFSET 11.7543 0.0 0.0
						CHANNELS 6 Xposition Yposition Zposition Zrotation Xrotation Yrotation 
						End Site
						{
							OFFSET 0.0 0.0 0.0
						}
					}
				}
			}
		}
		JOINT UpperLeg_R
		{
			OFFSET -2.19251 6.46944 0.0
			CHANNELS 6 Xposition Yposition Zposition Zrotation Xrotation Yrotation 
			JOINT LowerLeg_R
			{
				OFFSET -39.0811 -0.00228153 -0.0401928
				CHANNELS 6 Xposition Yposition Zposition Zrotation Xrotation Yrotation 
				JOINT Foot_R
				{
					OFFSET -40.9854 0.0 0.0
					CHANNELS 6 Xposition Yposition Zposition Zrotation Xrotation Yrotation 
					JOINT Toes_R
					{
						OFFSET -11.7543 0.0 0.0
						CHANNELS 6 Xposition Yposition Zposition Zrotation Xrotation Yrotation 
						End Site
						{
							OFFSET 0.0 0.0 0.0
						}
					}
				}
			}
		}
	}
}
MOTION
Frames:	7
Frame Time:	0.0333333
0.000000 0.000000 0.000000 0.000000 0.000000 -0.000000 -0.149416 90.474300 3.153340 88.962900 -4.031200 12.792800 15.735700 0.000005 -0.000001 95.741600 82.907800 -97.821100 8.984550 -0.406207 -0.000000 6.378400 1.439980 -4.234720 16.377300 -0.000001 -0.000001 32.456400 -6.341370 10.824200 6.456720 -0.000001 -0.000000 17.267700 -11.298100 -10.937400 12.994200 -0.242716 4.980390 -90.961300 3.148850 -73.014600 5.348090 -0.000007 -0.000001 -64.364700 36.938500 -11.270600 24.328600 0.000019 0.000005 8.524420 24.909100 -19.589200 22.291600 -0.000001 0.000005 11.376700 5.236380 1.790020 12.994500 -0.242716 -4.980390 92.430900 -6.683500 -69.959700 -5.348130 -0.000001 -0.000004 -37.391400 -46.206200 -87.658700 -24.328900 0.000322 -0.000009 -5.029650 -5.647810 -41.799800 -22.291500 -0.000108 -0.000004 22.409400 5.494620 -6.318250 -2.192480 -6.469440 -0.000000 -174.023000 -10.254300 5.327540 39.081100 -0.000007 -0.000012 -0.149623 0.252021 30.697500 40.985400 -0.000006 -0.000013 0.105459 4.146790 -73.009800 11.754300 -0.000000 0.000003 -0.000103 -0.001055 -16.618000 -2.192510 6.469440 -0.000001 173.675000 16.369500 -173.621000 -39.081100 -0.002282 -0.040193 -0.009350 0.022060 29.835700 -40.985400 0.000008 0.000006 4.902750 10.790900 -73.429600 -11.754300 -0.000006 -0.000006 -0.004240 -0.053915 -18.766300
0.000000 0.000000 0.000000 0.000000 0.000000 -0.000000 -0.221517 90.459400 3.230960 88.996400 -3.664520 12.746100 15.735700 0.000005 -0.000001 96.163300 82.940100 -98.377100 8.984550 -0.406207 -0.000000 6.307560 1.539650 -4.507730 16.377300 -0.000001 -0.000001 32.233400 -6.131290 10.148300 6.456720 -0.000001 -0.000000 17.303500 -11.017100 -11.374000 12.994200 -0.242716 4.980390 -90.989100 3.202680 -72.827700 5.348090 -0.000007 -0.000001 -64.002800 36.310900 -11.183500 24.328600 0.000019 0.000005 8.483890 24.873200 -19.526200 22.291600 -0.000001 0.000005 11.186500 5.229000 1.981190 12.994500 -0.242716 -4.980390 92.250000 -6.339060 -70.411800 -5.348130 -0.000001 -0.000004 -37.023300 -45.944800 -83.061500 -24.328900 0.000322 -0.000009 -5.063360 -6.067510 -39.965300 -22.291500 -0.000108 -0.000004 22.385600 5.490980 -6.174470 -2.192480 -6.469440 -0.000000 -174.081000 -9.945160 5.252990 39.081100 -0.000007 -0.000012 -0.150740 0.253586 30.729000 40.985400 -0.000006 -0.000013 0.078186 4.229580 -73.041800 11.754300 -0.000000 0.000003 -0.000101 -0.001033 -16.617200 -2.192510 6.469440 -0.000001 173.648000 16.601600 -173.567000 -39.081100 -0.002282 -0.040193 -0.003583 0.011988 29.869300 -40.985400 0.000008 0.000006 5.007450 10.609300 -73.560100 -11.754300 -0.000006 -0.000006 -0.004271 -0.054231 -18.779200
0.000000 0.000000 0.000000 0.000000 0.000000 -0.000000 -0.284744 90.450800 3.316500 89.021100 -3.335830 12.715800 15.735700 0.000005 -0.000001 96.545800 82.945800 -98.860300 8.984550 -0.406207 -0.000000 6.289620 1.633440 -4.713730 16.377300 -0.000001 -0.000001 31.904000 -5.869450 9.375590 6.456720 -0.000001 -0.000000 17.288900 -10.685700 -11.980800 12.994200 -0.242716 4.980390 -91.043200 3.322420 -72.557300 5.348090 -0.000007 -0.000001 -63.574000 35.860100 -11.199400 24.328600 0.000019 0.000005 8.447460 24.836200 -19.472600 22.291600 -0.000001 0.000005 11.139700 5.229280 1.974140 12.994500 -0.242716 -4.980390 92.103800 -6.059330 -70.811500 -5.348130 -0.000001 -0.000004 -37.351100 -45.728400 -78.722600 -24.328900 0.000322 -0.000009 -5.025600 -6.446100 -38.065300 -22.291500 -0.000108 -0.000004 22.544700 5.483600 -5.886810 -2.192480 -6.469440 -0.000000 -174.083000 -9.790130 5.242740 39.081100 -0.000007 -0.000012 -0.153186 0.257800 30.719200 40.985400 -0.000006 -0.000013 0.067766 4.363280 -73.066800 11.754300 -0.000000 0.000003 -0.000111 -0.001124 -16.620600 -2.192510 6.469440 -0.000001 173.619000 16.813500 -173.469000 -39.081100 -0.002282 -0.040193 0.004012 -0.001236 29.855500 -40.985400 0.000008 0.000006 5.101220 10.463400 -73.668600 -11.754300 -0.000006 -0.000006 -0.004436 -0.055897 -18.847100
0.000000 0.000000 0.000000 0.000000 0.000000 -0.000000 -0.343031 90.437800 3.411880 89.034200 -3.045820 12.697300 15.735700 0.000005 -0.000001 96.962400 82.945700 -99.358500 8.984550 -0.406207 -0.000000 6.281640 1.736260 -4.882470 16.377300 -0.000001 -0.000001 31.545800 -5.552220 8.423710 6.456720 -0.000001 -0.000000 17.303700 -10.245300 -12.434700 12.994200 -0.242716 4.980390 -91.092100 3.430050 -72.327800 5.348090 -0.000007 -0.000001 -63.218400 35.502900 -11.168200 24.328600 0.000019 0.000005 8.447850 24.774500 -19.515400 22.291600 -0.000001 0.000005 11.223600 5.228650 1.990430 12.994500 -0.242716 -4.980390 91.952200 -5.764320 -71.254200 -5.348130 -0.000001 -0.000004 -37.818300 -45.691900 -74.302400 -24.328900 0.000322 -0.000009 -4.846060 -6.670070 -36.120100 -22.291500 -0.000108 -0.000004 22.717000 5.475820 -5.589620 -2.192480 -6.469440 -0.000000 -174.070000 -9.637210 5.253600 39.081100 -0.000007 -0.000012 -0.153483 0.258251 30.724000 40.985400 -0.000006 -0.000013 0.070720 4.530680 -73.115500 11.754300 -0.000000 0.000003 -0.000102 -0.001045 -16.617600 -2.192510 6.469440 -0.000001 173.577000 17.040200 -173.384000 -39.081100 -0.002282 -0.040193 0.005045 -0.003032 29.887600 -40.985400 0.000008 0.000006 5.190850 10.379200 -73.758900 -11.754300 -0.000006 -0.000006 -0.004234 -0.053849 -18.763600
0.000000 0.000000 0.000000 0.000000 0.000000 -0.000000 -0.388334 90.426000 3.501260 89.059500 -2.804220 12.656000 15.735700 0.000005 -0.000001 97.349500 82.936700 -99.817300 8.984550 -0.406207 -0.000000 6.291250 1.833540 -5.031360 16.377300 -0.000001 -0.000001 31.205400 -5.187780 7.512160 6.456720 -0.000001 -0.000000 17.147000 -9.685040 -12.975600 12.994200 -0.242716 4.980390 -91.133900 3.500750 -72.040700 5.348090 -0.000007 -0.000001 -62.916700 35.237200 -11.198500 24.328600 0.000019 0.000005 8.504870 24.788400 -19.629400 22.291600 -0.000001 0.000005 11.161200 5.228470 1.994940 12.994500 -0.242716 -4.980390 91.792800 -5.413380 -71.644600 -5.348130 -0.000001 -0.000004 -38.112700 -45.800400 -69.784200 -24.328900 0.000322 -0.000009 -4.647250 -6.876360 -34.168000 -22.291500 -0.000108 -0.000004 22.671700 5.465610 -5.207000 -2.192480 -6.469440 -0.000000 -174.086000 -9.510450 5.246200 39.081100 -0.000007 -0.000012 -0.154381 0.259803 30.720000 40.985400 -0.000006 -0.000013 0.066550 4.632520 -73.158500 11.754300 -0.000000 0.000003 -0.000103 -0.001056 -16.618000 -2.192510 6.469440 -0.000001 173.547000 17.154900 -173.334000 -39.081100 -0.002282 -0.040193 0.004131 -0.001442 29.900500 -40.985400 0.000008 0.000006 5.108680 10.265500 -73.799500 -11.754300 -0.000006 -0.000006 -0.004158 -0.053074 -18.732100
0.000000 0.000000 0.000000 0.000000 0.000000 -0.000000 -0.422569 90.414900 3.579590 89.084200 -2.556600 12.617400 15.735700 0.000005 -0.000001 97.539600 82.905000 -100.063000 8.984550 -0.406207 -0.000000 6.350550 1.887520 -5.145830 16.377300 -0.000001 -0.000001 30.721300 -4.768740 6.612920 6.456720 -0.000001 -0.000000 17.048300 -9.102560 -13.445800 12.994200 -0.242716 4.980390 -91.189700 3.619560 -71.791200 5.348090 -0.000007 -0.000001 -62.603500 35.071900 -11.228100 24.328600 0.000019 0.000005 8.520030 24.631800 -19.770300 22.291600 -0.000001 0.000005 11.214300 5.228790 1.986850 12.994500 -0.242716 -4.980390 91.629300 -5.022990 -72.002200 -5.348130 -0.000001 -0.000004 -37.831400 -46.005000 -64.940000 -24.328900 0.000322 -0.000009 -4.479880 -7.112770 -32.317200 -22.291500 -0.000108 -0.000004 22.393800 5.448600 -4.589150 -2.192480 -6.469440 -0.000000 -174.134000 -9.303550 5.209730 39.081100 -0.000007 -0.000012 -0.153854 0.258801 30.731100 40.985400 -0.000006 -0.000013 0.062383 4.704710 -73.192700 11.754300 -0.000000 0.000003 -0.000100 -0.001025 -16.616900 -2.192510 6.469440 -0.000001 173.505000 17.317300 -173.300000 -39.081100 -0.002282 -0.040193 0.005238 -0.003361 29.947300 -40.985400 0.000008 0.000006 5.165040 10.164800 -73.865000 -11.754300 -0.000006 -0.000006 -0.004337 -0.054896 -18.806300
0.000000 0.000000 0.000000 0.000000 0.000000 -0.000000 -0.443496 90.401000 3.662410 89.150500 -2.381110 12.604900 15.735700 0.000005 -0.000001 97.561800 82.840900 -100.120000 8.984550 -0.406207 -0.000000 6.478150 1.907170 -5.218470 16.377300 -0.000001 -0.000001 30.227300 -4.327950 5.718400 6.456720 -0.000001 -0.000000 16.813300 -8.410270 -13.961000 12.994200 -0.242716 4.980390 -91.258500 3.774690 -71.545800 5.348090 -0.000007 -0.000001 -62.376800 34.882000 -11.227700 24.328600 0.000019 0.000005 8.528760 24.421800 -19.936300 22.291600 -0.000001 0.000005 11.106400 5.229050 1.980090 12.994500 -0.242716 -4.980390 91.475600 -4.625450 -72.285100 -5.348130 -0.000001 -0.000004 -37.029800 -46.153200 -60.160400 -24.328900 0.000322 -0.000009 -4.187140 -7.149050 -30.460300 -22.291500 -0.000108 -0.000004 21.976600 5.429750 -3.930270 -2.192480 -6.469440 -0.000000 -174.185000 -9.240690 5.240940 39.081100 -0.000007 -0.000012 -0.156942 0.264161 30.715500 40.985400 -0.000006 -0.000013 0.068826 4.793540 -73.230300 11.754300 -0.000000 0.000003 -0.000106 -0.001082 -16.619000 -2.192510 6.469440 -0.000001 173.442000 17.333000 -173.244000 -39.081100 -0.002282 -0.040193 0.004207 -0.001570 29.963600 -40.985400 0.000008 0.000006 5.064260 10.030000 -73.937900 -11.754300 -0.000006 -0.000006 -0.004097 -0.052444 -18.706400
